<svg xmlns="http://www.w3.org/2000/svg" width="59" height="39" viewBox="0 0 59 39" fill="none"><path d="M21.14 37.168C19.3027 38.1387 17.1013 38.624 14.536 38.624C11.9707 38.624 9.752 38.1387 7.88 37.168C6.04267 36.1627 4.604 34.7587 3.564 32.956C2.524 31.1533 1.76133 29.1253 1.276 26.872C0.790667 24.6187 0.548 22.1053 0.548 19.332C0.548 16.5587 0.790667 14.0627 1.276 11.844C1.76133 9.59067 2.524 7.58 3.564 5.812C4.604 4.00933 6.04267 2.62267 7.88 1.652C9.752 0.68133 11.9707 0.195997 14.536 0.195997C17.1013 0.195997 19.3027 0.68133 21.14 1.652C23.012 2.62267 24.468 4.00933 25.508 5.812C26.548 7.58 27.3107 9.59067 27.796 11.844C28.2813 14.0627 28.524 16.5587 28.524 19.332C28.524 22.1053 28.2813 24.6187 27.796 26.872C27.3107 29.1253 26.548 31.1533 25.508 32.956C24.468 34.7587 23.012 36.1627 21.14 37.168ZM9.908 19.332C9.908 26.6467 11.4507 30.304 14.536 30.304C17.6213 30.304 19.164 26.6467 19.164 19.332C19.164 12.1213 17.6213 8.516 14.536 8.516C11.4507 8.516 9.908 12.1213 9.908 19.332ZM33.9186 38V30.2H41.8226V14.704L41.8746 11.844H41.7706C41.4586 12.5373 40.9733 13.196 40.3146 13.82L38.0786 15.848L32.8266 10.232L42.8626 0.819998H50.7146V30.2H58.6706V38H33.9186Z" fill="#F50D36"></path></svg>