<svg xmlns="http://www.w3.org/2000/svg" width="60" height="39" viewBox="0 0 60 39" fill="none"><path d="M21.14 37.168C19.3027 38.1387 17.1013 38.624 14.536 38.624C11.9707 38.624 9.752 38.1387 7.88 37.168C6.04267 36.1627 4.604 34.7587 3.564 32.956C2.524 31.1533 1.76133 29.1253 1.276 26.872C0.790667 24.6187 0.548 22.1053 0.548 19.332C0.548 16.5587 0.790667 14.0627 1.276 11.844C1.76133 9.59067 2.524 7.58 3.564 5.812C4.604 4.00933 6.04267 2.62267 7.88 1.652C9.752 0.68133 11.9707 0.195997 14.536 0.195997C17.1013 0.195997 19.3027 0.68133 21.14 1.652C23.012 2.62267 24.468 4.00933 25.508 5.812C26.548 7.58 27.3107 9.59067 27.796 11.844C28.2813 14.0627 28.524 16.5587 28.524 19.332C28.524 22.1053 28.2813 24.6187 27.796 26.872C27.3107 29.1253 26.548 31.1533 25.508 32.956C24.468 34.7587 23.012 36.1627 21.14 37.168ZM9.908 19.332C9.908 26.6467 11.4507 30.304 14.536 30.304C17.6213 30.304 19.164 26.6467 19.164 19.332C19.164 12.1213 17.6213 8.516 14.536 8.516C11.4507 8.516 9.908 12.1213 9.908 19.332ZM33.9186 38C33.6413 36.44 33.5026 35.1053 33.5026 33.996C33.5026 31.8467 33.9013 29.8533 34.6986 28.016C35.4959 26.1787 36.4839 24.6707 37.6626 23.492C38.8413 22.3133 40.1239 21.1867 41.5106 20.112C42.9319 19.0373 44.2319 18.136 45.4106 17.408C46.5893 16.6453 47.5773 15.848 48.3746 15.016C49.1719 14.1493 49.5706 13.3 49.5706 12.468C49.5706 11.2547 49.1719 10.336 48.3746 9.712C47.5773 9.088 46.6413 8.776 45.5666 8.776C44.4226 8.776 43.3653 9.15733 42.3946 9.92C41.4239 10.6827 40.6439 11.6187 40.0546 12.728L33.2946 8.204C34.5079 5.84667 36.2066 3.92267 38.3906 2.432C40.6093 0.941331 43.2786 0.195997 46.3986 0.195997C49.7959 0.195997 52.7599 1.184 55.2906 3.16C57.8213 5.10133 59.0866 7.90933 59.0866 11.584C59.0866 13.7333 58.5666 15.692 57.5266 17.46C56.4866 19.228 55.2213 20.684 53.7306 21.828C52.2399 22.9373 50.7493 23.96 49.2586 24.896C47.7679 25.7973 46.4679 26.6987 45.3586 27.6C44.2493 28.4667 43.6599 29.3333 43.5906 30.2H59.6586V38H33.9186Z" fill="#F50D36"></path></svg>