<svg xmlns="http://www.w3.org/2000/svg" width="60" height="39" viewBox="0 0 60 39" fill="none"><path d="M21.14 37.168C19.3027 38.1387 17.1013 38.624 14.536 38.624C11.9707 38.624 9.752 38.1387 7.88 37.168C6.04267 36.1627 4.604 34.7587 3.564 32.956C2.524 31.1533 1.76133 29.1253 1.276 26.872C0.790667 24.6187 0.548 22.1053 0.548 19.332C0.548 16.5587 0.790667 14.0627 1.276 11.844C1.76133 9.59067 2.524 7.58 3.564 5.812C4.604 4.00933 6.04267 2.62267 7.88 1.652C9.752 0.68133 11.9707 0.195997 14.536 0.195997C17.1013 0.195997 19.3027 0.68133 21.14 1.652C23.012 2.62267 24.468 4.00933 25.508 5.812C26.548 7.58 27.3107 9.59067 27.796 11.844C28.2813 14.0627 28.524 16.5587 28.524 19.332C28.524 22.1053 28.2813 24.6187 27.796 26.872C27.3107 29.1253 26.548 31.1533 25.508 32.956C24.468 34.7587 23.012 36.1627 21.14 37.168ZM9.908 19.332C9.908 26.6467 11.4507 30.304 14.536 30.304C17.6213 30.304 19.164 26.6467 19.164 19.332C19.164 12.1213 17.6213 8.516 14.536 8.516C11.4507 8.516 9.908 12.1213 9.908 19.332ZM32.6186 33.736L36.9866 26.716C39.2746 28.9347 41.8226 30.044 44.6306 30.044C46.2599 30.044 47.5426 29.6973 48.4786 29.004C49.4493 28.276 49.9346 27.392 49.9346 26.352C49.9346 23.6133 47.6293 22.244 43.0186 22.244H40.4186L38.4946 17.824L43.3826 11.948C43.9026 11.324 44.4226 10.7173 44.9426 10.128C45.4973 9.53867 45.9133 9.12267 46.1906 8.88L46.6066 8.464V8.36C45.8093 8.53333 44.6306 8.62 43.0706 8.62H34.1786V0.819998H57.6306V6.488L50.0906 15.172C52.8293 15.7613 55.0133 17.044 56.6426 19.02C58.2719 20.996 59.0866 23.3013 59.0866 25.936C59.0866 29.4027 57.8733 32.384 55.4466 34.88C53.0546 37.376 49.6746 38.624 45.3066 38.624C40.0719 38.624 35.8426 36.9947 32.6186 33.736Z" fill="#F50D36"></path></svg>