<svg xmlns="http://www.w3.org/2000/svg" width="60" height="39" viewBox="0 0 60 39" fill="none"><path d="M21.14 37.168C19.3027 38.1387 17.1013 38.624 14.536 38.624C11.9707 38.624 9.752 38.1387 7.88 37.168C6.04267 36.1627 4.604 34.7587 3.564 32.956C2.524 31.1533 1.76133 29.1253 1.276 26.872C0.790667 24.6187 0.548 22.1053 0.548 19.332C0.548 16.5587 0.790667 14.0627 1.276 11.844C1.76133 9.59067 2.524 7.58 3.564 5.812C4.604 4.00933 6.04267 2.62267 7.88 1.652C9.752 0.68133 11.9707 0.195997 14.536 0.195997C17.1013 0.195997 19.3027 0.68133 21.14 1.652C23.012 2.62267 24.468 4.00933 25.508 5.812C26.548 7.58 27.3107 9.59067 27.796 11.844C28.2813 14.0627 28.524 16.5587 28.524 19.332C28.524 22.1053 28.2813 24.6187 27.796 26.872C27.3107 29.1253 26.548 31.1533 25.508 32.956C24.468 34.7587 23.012 36.1627 21.14 37.168ZM9.908 19.332C9.908 26.6467 11.4507 30.304 14.536 30.304C17.6213 30.304 19.164 26.6467 19.164 19.332C19.164 12.1213 17.6213 8.516 14.536 8.516C11.4507 8.516 9.908 12.1213 9.908 19.332ZM32.9826 33.736L37.3506 26.716C39.7079 28.9347 42.2213 30.044 44.8906 30.044C46.2426 30.044 47.4386 29.6453 48.4786 28.848C49.5533 28.016 50.0906 26.8893 50.0906 25.468C50.0906 24.0467 49.5359 22.92 48.4266 22.088C47.3173 21.256 45.8959 20.84 44.1626 20.84C42.4986 20.84 40.8346 21.256 39.1706 22.088L34.3346 20.268L35.8426 0.819998H56.6426V8.62H43.7466L43.5386 12.052L43.3306 13.508H43.4346C44.0933 13.2653 44.9946 13.144 46.1386 13.144C50.3679 13.144 53.6439 14.3053 55.9666 16.628C58.2893 18.916 59.4506 21.828 59.4506 25.364C59.4506 29.212 58.1679 32.384 55.6026 34.88C53.0373 37.376 49.7266 38.624 45.6706 38.624C40.6093 38.624 36.3799 36.9947 32.9826 33.736Z" fill="#F50D36"></path></svg>