<svg xmlns="http://www.w3.org/2000/svg" width="62" height="39" viewBox="0 0 62 39" fill="none"><path d="M21.14 37.168C19.3027 38.1387 17.1013 38.624 14.536 38.624C11.9707 38.624 9.752 38.1387 7.88 37.168C6.04267 36.1627 4.604 34.7587 3.564 32.956C2.524 31.1533 1.76133 29.1253 1.276 26.872C0.790667 24.6187 0.548 22.1053 0.548 19.332C0.548 16.5587 0.790667 14.0627 1.276 11.844C1.76133 9.59067 2.524 7.58 3.564 5.812C4.604 4.00933 6.04267 2.62267 7.88 1.652C9.752 0.68133 11.9707 0.195997 14.536 0.195997C17.1013 0.195997 19.3027 0.68133 21.14 1.652C23.012 2.62267 24.468 4.00933 25.508 5.812C26.548 7.58 27.3107 9.59067 27.796 11.844C28.2813 14.0627 28.524 16.5587 28.524 19.332C28.524 22.1053 28.2813 24.6187 27.796 26.872C27.3107 29.1253 26.548 31.1533 25.508 32.956C24.468 34.7587 23.012 36.1627 21.14 37.168ZM9.908 19.332C9.908 26.6467 11.4507 30.304 14.536 30.304C17.6213 30.304 19.164 26.6467 19.164 19.332C19.164 12.1213 17.6213 8.516 14.536 8.516C11.4507 8.516 9.908 12.1213 9.908 19.332ZM33.3986 20.84C33.3986 18.2747 33.7799 15.7787 34.5426 13.352C35.3399 10.9253 36.4493 8.724 37.8706 6.748C39.3266 4.772 41.1986 3.19466 43.4866 2.016C45.8093 0.802664 48.3573 0.195997 51.1306 0.195997C54.3546 0.195997 57.0933 0.733331 59.3466 1.808L56.9026 9.608C56.4519 9.36533 55.6893 9.12267 54.6146 8.88C53.5399 8.63733 52.6039 8.516 51.8066 8.516C47.8199 8.516 45.1506 10.5613 43.7986 14.652H43.9026C44.3533 14.34 45.0986 14.0453 46.1386 13.768C47.1786 13.4907 48.1319 13.352 48.9986 13.352C52.6733 13.352 55.6199 14.6347 57.8386 17.2C60.0573 19.7307 61.1666 22.6947 61.1666 26.092C61.1666 29.4547 60.0053 32.384 57.6826 34.88C55.3946 37.376 52.3266 38.624 48.4786 38.624C44.3879 38.624 40.8519 37.0813 37.8706 33.996C34.8893 30.9107 33.3986 26.5253 33.3986 20.84ZM48.4786 30.304C49.5879 30.304 50.4893 29.9053 51.1826 29.108C51.8759 28.276 52.2226 27.288 52.2226 26.144C52.2226 24.6533 51.7546 23.3707 50.8186 22.296C49.8826 21.2213 48.4786 20.684 46.6066 20.684C44.0413 20.684 42.7586 21.4293 42.7586 22.92C42.7586 25 43.3653 26.7507 44.5786 28.172C45.7919 29.5933 47.0919 30.304 48.4786 30.304Z" fill="#F50D36"></path></svg>