<svg xmlns="http://www.w3.org/2000/svg" width="45" height="45" viewBox="0 0 45 45" fill="none"><circle cx="22.5" cy="22.5" r="22.5" fill="url(#paint0_linear)"></circle><path d="M29.729 16.7493L28.4129 15.2986C28.2325 15.0996 28.013 15 27.755 15C27.4968 15 27.2773 15.0996 27.0969 15.2986L20.7484 22.3066L17.9032 19.1599C17.7225 18.9608 17.5032 18.8613 17.2452 18.8613C16.9871 18.8613 16.7677 18.9608 16.5871 19.1599L15.271 20.6106C15.0903 20.8097 15 21.0515 15 21.336C15 21.6203 15.0903 21.8623 15.271 22.0614L18.7741 25.9226L20.0903 27.3732C20.2709 27.5724 20.4903 27.6719 20.7484 27.6719C21.0064 27.6719 21.2258 27.5722 21.4064 27.3732L22.7226 25.9226L29.729 18.2C29.9095 18.0009 30 17.7591 30 17.4746C30.0001 17.1902 29.9095 16.9484 29.729 16.7493Z" fill="white"></path><defs><linearGradient id="paint0_linear" x1="-1.38678e-07" y1="22.4647" x2="45.749" y2="22.7797" gradientUnits="userSpaceOnUse"><stop stop-color="#FF4062"></stop><stop offset="1" stop-color="#F50D37"></stop></linearGradient></defs></svg>