<svg xmlns="http://www.w3.org/2000/svg" width="20" height="20" viewBox="0 0 20 20" fill="none"><circle cx="10" cy="10" r="10" fill="url(#paint0_linear)"></circle><path d="M7.36 14.016C8.128 14.796 9.256 15.144 10.288 15.144C12.436 15.144 13.468 13.68 13.468 12.216C13.468 11.016 12.664 10.008 11.392 9.732L13.132 7.728V6.42H7.72V8.22H9.772C10.312 8.22 10.588 8.16 10.588 8.16V8.184C10.588 8.184 10.252 8.496 9.844 8.988L8.716 10.344L9.16 11.364H9.76C10.684 11.364 11.356 11.64 11.356 12.312C11.356 12.78 10.912 13.164 10.132 13.164C9.472 13.164 8.8 12.816 8.368 12.396L7.36 14.016Z" fill="white"></path><defs><linearGradient id="paint0_linear" x1="-6.16345e-08" y1="9.9843" x2="20.3329" y2="10.1243" gradientUnits="userSpaceOnUse"><stop stop-color="#FF4062"></stop><stop offset="1" stop-color="#F50D36"></stop></linearGradient></defs></svg>